<svg width="16" height="16" viewBox="0 0 16 16" fill="none" xmlns="http://www.w3.org/2000/svg">
<g clip-path="url(#clip0)">
<path d="M11.4017 12.435C11.4017 13.0908 9.89584 13.6223 8.03853 13.6223C6.18091 13.6223 4.67505 13.0908 4.67505 12.435C4.67505 11.7793 6.18084 11.2477 8.03853 11.2477C9.89584 11.2477 11.4017 11.7794 11.4017 12.435Z" fill="#9CDAF1"/>
<path d="M7.1242 13.578V12.7317C7.1242 12.6224 7.1046 12.531 7.07186 12.4538C7.28884 12.6238 7.3035 13.0508 7.3035 13.0508V13.5939C7.49873 13.6092 7.70035 13.6186 7.90676 13.6214L7.90131 13.081C7.87143 12.3423 7.24372 12.2519 7.24372 12.2519C7.01433 12.1994 7.01775 12.3155 7.0408 12.3905C6.81574 12.0034 6.21258 12.0534 6.21258 12.0534C6.00326 12.1287 6.19754 12.2644 6.19754 12.2644C6.52641 12.385 6.55627 12.7468 6.55627 12.7468V13.5012C6.73738 13.5325 6.92703 13.5584 7.12429 13.5778L7.1242 13.578Z" fill="#7DBBE6"/>
<path d="M9.76969 12.0534C9.76969 12.0534 9.16643 12.0034 8.94141 12.3906C8.96446 12.3156 8.96797 12.1994 8.73851 12.2519C8.73851 12.2519 8.11084 12.3424 8.08095 13.081L8.07544 13.6222C8.28153 13.6214 8.48312 13.6141 8.67873 13.6008V13.0509C8.67873 13.0509 8.69346 12.6238 8.91038 12.4538C8.87764 12.531 8.85804 12.6224 8.85804 12.7317V13.5868C9.05479 13.5694 9.24467 13.5459 9.42597 13.5169V12.7468C9.42597 12.7468 9.45586 12.385 9.7847 12.2644C9.7847 12.2641 9.97879 12.1284 9.7695 12.053L9.76969 12.0534Z" fill="#7DBBE6"/>
<path d="M13.9738 7.51335L13.9827 7.46899C12.996 7.26999 11.9835 7.26798 11.371 7.29366C11.4716 6.92796 11.5018 6.50717 11.5018 6.03793C11.5018 5.36494 11.2512 4.82656 10.8442 4.41688C10.9153 4.18535 11.0103 3.67114 10.7494 3.01288C10.7494 3.01288 10.289 2.86543 9.24759 3.56844C8.83965 3.4656 8.4055 3.41482 7.97071 3.41482C7.49233 3.41482 7.00894 3.47627 6.5581 3.60101C5.48348 2.86156 5.00909 3.01304 5.00909 3.01304C4.69943 3.7941 4.89089 4.37243 4.94906 4.51605C4.5851 4.91225 4.36289 5.41802 4.36289 6.03809C4.36289 6.50621 4.41574 6.92617 4.54479 7.29117C3.92703 7.26849 2.95145 7.27721 2 7.46912L2.00874 7.51348C2.96592 7.32039 3.94764 7.31368 4.56164 7.33712C4.59007 7.41269 4.62176 7.48598 4.65729 7.55681C4.0501 7.57655 3.01332 7.6546 2.01973 7.93733L2.03198 7.98077C3.03342 7.69596 4.0792 7.61986 4.6805 7.6013C5.04328 8.28339 5.75853 8.72392 7.03098 8.86227C6.85038 8.98468 6.66613 9.19277 6.59147 9.54487C6.34536 9.66361 5.56628 9.95343 5.09885 9.14251C5.09885 9.14251 4.83719 8.65998 4.33636 8.6222C4.33636 8.6222 3.85053 8.6147 4.30283 8.92758C4.30283 8.92758 4.62791 9.08208 4.8522 9.66271C4.8522 9.66271 5.14479 10.6531 6.55674 10.3353V11.3583C6.55674 11.3583 6.52688 11.7201 6.19801 11.8407C6.19801 11.8407 6.00369 11.9764 6.21305 12.0517C6.21305 12.0517 7.12467 12.1271 7.12467 11.3734V10.2579C7.12467 10.2579 7.08851 9.81553 7.30397 9.66176V11.494C7.30397 11.494 7.28909 11.9311 7.06489 12.0969C7.06489 12.0969 6.91535 12.3682 7.24419 12.2929C7.24419 12.2929 7.87186 12.2025 7.90178 11.4638L7.916 9.60964H8.06687L8.08121 11.4638C8.11107 12.2025 8.73878 12.2929 8.73878 12.2929C9.06753 12.3682 8.91808 12.0969 8.91808 12.0969C8.69391 11.9311 8.679 11.494 8.679 11.494V9.67756C8.89433 9.8467 8.8583 10.2579 8.8583 10.2579V11.3734C8.8583 12.1271 9.76995 12.0516 9.76995 12.0516C9.97911 11.9764 9.78496 11.8407 9.78496 11.8407C9.45612 11.7201 9.42623 11.3583 9.42623 11.3583V9.89604C9.42623 9.32585 9.18819 9.0239 8.95541 8.8645C10.3124 8.72877 10.9636 8.28681 11.2637 7.60012C11.8581 7.6166 12.9278 7.68964 13.951 7.98077L13.9631 7.93733C12.9458 7.64789 11.8832 7.573 11.2827 7.55538C11.3112 7.48601 11.336 7.41387 11.358 7.33965C11.9675 7.3141 12.9848 7.31442 13.9752 7.51402L13.9738 7.51335Z" fill="black"/>
<path d="M10.1747 6.00635C10.467 6.27343 10.6379 6.59595 10.6379 6.94345C10.6379 8.56594 9.43881 8.60991 7.95977 8.60991C6.48048 8.60991 5.28149 8.38524 5.28149 6.94345C5.28149 6.59825 5.45006 6.27774 5.73873 6.01175C6.22025 5.56844 7.03517 5.80317 7.95974 5.80317C8.88016 5.80304 9.6923 5.56592 10.1745 6.00619L10.1747 6.00635Z" fill="#F4CBB2"/>
<path d="M7.06886 7.02601C7.06886 7.47293 6.81936 7.83514 6.5116 7.83514C6.20384 7.83514 5.95435 7.47293 5.95435 7.02601C5.95435 6.57916 6.20384 6.21707 6.5116 6.21707C6.81936 6.21739 7.06886 6.57923 7.06886 7.02601V7.02601ZM10.0587 7.02601C10.0587 7.47293 9.80923 7.83514 9.50147 7.83514C9.19371 7.83514 8.94421 7.47293 8.94421 7.02601C8.94421 6.57916 9.19371 6.21707 9.50147 6.21707C9.80923 6.21739 10.0587 6.57923 10.0587 7.02601V7.02601Z" fill="white"/>
<path d="M6.89048 7.03623C6.89048 7.33413 6.72394 7.57554 6.51895 7.57554C6.31397 7.57554 6.14746 7.33413 6.14746 7.03623C6.14746 6.73824 6.31385 6.4967 6.51895 6.4967C6.72381 6.4967 6.89035 6.73814 6.89035 7.0361L6.89048 7.03623ZM9.88003 7.03623C9.88003 7.33413 9.71349 7.57554 9.5085 7.57554C9.30352 7.57554 9.13701 7.33413 9.13701 7.03623C9.13701 6.73824 9.3034 6.4967 9.5085 6.4967C9.71336 6.4967 9.8799 6.73814 9.8799 7.0361L9.88003 7.03623Z" fill="#AD5C51"/>
<path d="M7.9682 7.88514C8.04516 7.88514 8.10755 7.82221 8.10755 7.74459C8.10755 7.66696 8.04516 7.60403 7.9682 7.60403C7.89124 7.60403 7.82886 7.66696 7.82886 7.74459C7.82886 7.82221 7.89124 7.88514 7.9682 7.88514Z" fill="#AD5C51"/>
<path d="M7.64319 8.10004C7.63495 8.07647 7.64724 8.0507 7.67045 8.04239C7.69378 8.03409 7.7194 8.04648 7.7276 8.06989C7.7635 8.17202 7.85953 8.24062 7.96668 8.24062C8.07382 8.24062 8.16986 8.17206 8.20576 8.06989C8.21399 8.04632 8.23955 8.03409 8.26291 8.04239C8.28628 8.0507 8.29841 8.07647 8.2902 8.10004C8.24179 8.23813 8.11166 8.33091 7.96668 8.33091C7.8217 8.33091 7.69185 8.23861 7.64341 8.10033L7.64319 8.10004Z" fill="#AD5C51"/>
<path d="M4.55305 8.74289C4.55305 8.78038 4.50948 8.81065 4.45585 8.81065C4.40224 8.81065 4.35864 8.78038 4.35864 8.74289C4.35864 8.70536 4.40224 8.67496 4.45585 8.67496C4.50948 8.67496 4.55305 8.7053 4.55305 8.74298V8.74289ZM4.82218 8.89362C4.82218 8.93112 4.77861 8.96139 4.72498 8.96139C4.67137 8.96139 4.62777 8.93112 4.62777 8.89362C4.62777 8.8561 4.67137 8.8257 4.72498 8.8257C4.77861 8.8257 4.82218 8.85604 4.82218 8.89372V8.89362ZM4.9866 9.08971C4.9866 9.1272 4.94303 9.15748 4.8894 9.15748C4.83579 9.15748 4.79219 9.1272 4.79219 9.08971C4.79219 9.05219 4.83579 9.02178 4.8894 9.02178C4.94303 9.02178 4.9866 9.05212 4.9866 9.08981V9.08971ZM5.13605 9.31582C5.13605 9.35331 5.09248 9.38359 5.03884 9.38359C4.98524 9.38359 4.94164 9.35331 4.94164 9.31582C4.94164 9.27829 4.98524 9.24789 5.03884 9.24789C5.09248 9.24789 5.13605 9.27823 5.13605 9.31592V9.31582ZM5.30031 9.52692C5.30031 9.56441 5.25674 9.59469 5.20311 9.59469C5.1495 9.59469 5.1059 9.56441 5.1059 9.52692C5.1059 9.48939 5.1495 9.45899 5.20311 9.45899C5.25674 9.45899 5.30031 9.48933 5.30031 9.52701V9.52692ZM5.5248 9.70768C5.5248 9.74517 5.48123 9.77544 5.42759 9.77544C5.37399 9.77544 5.33039 9.74517 5.33039 9.70768C5.33039 9.67015 5.37399 9.63975 5.42759 9.63975C5.48123 9.63975 5.5248 9.67009 5.5248 9.70777V9.70768ZM5.83857 9.82839C5.83857 9.86589 5.795 9.89616 5.74137 9.89616C5.68776 9.89616 5.64416 9.86589 5.64416 9.82839C5.64416 9.79087 5.68776 9.76047 5.74137 9.76047C5.795 9.76047 5.83857 9.79081 5.83857 9.82849V9.82839ZM6.15108 9.82839C6.15108 9.86589 6.10751 9.89616 6.05387 9.89616C6.00027 9.89616 5.95667 9.86589 5.95667 9.82839C5.95667 9.79087 6.00027 9.76047 6.05387 9.76047C6.10751 9.76047 6.15108 9.79081 6.15108 9.82849V9.82839ZM6.46802 9.77602C6.46802 9.81351 6.42445 9.84379 6.37081 9.84379C6.31721 9.84379 6.27361 9.81351 6.27361 9.77602C6.27361 9.73849 6.31721 9.70809 6.37081 9.70809C6.42445 9.70809 6.46802 9.73843 6.46802 9.77612V9.77602Z" fill="#C3E4D8"/>
<path d="M4.19612 8.94409L4.09904 9.28527C4.09904 9.28527 4.07371 9.40857 4.18896 9.43045C4.30928 9.42808 4.29934 9.31461 4.29101 9.27776L4.19612 8.94409Z" fill="#9CDAF1"/>
</g>
<defs>
<clipPath id="clip0">
<rect width="12" height="10.6667" fill="white" transform="translate(2 3)"/>
</clipPath>
</defs>
</svg>
