<svg width="16" height="16" viewBox="0 0 16 16" fill="none" xmlns="http://www.w3.org/2000/svg">
<path d="M12.9656 5.3816C12.9764 4.8428 12.8576 4.2968 12.7616 3.7604C12.728 3.5756 12.662 3.3968 12.5948 3.2216C12.5456 3.0896 12.398 3.0056 12.2624 3.0344C12.1748 3.0536 12.0956 3.0716 12.02 3.0968C11.2208 3.3596 10.4792 3.7448 9.76879 4.1912C9.67279 4.2512 9.53479 4.2728 9.41839 4.2644C9.14239 4.244 8.86879 4.1756 8.59399 4.1624C7.91119 4.13 7.22959 4.1504 6.55279 4.2692C6.45919 4.286 6.33439 4.2692 6.25639 4.2188C5.48119 3.7172 4.67359 3.2876 3.76519 3.0464C3.62839 3.0104 3.48919 3.0296 3.45439 3.0836C3.43279 3.1172 3.41479 3.1508 3.40399 3.188C3.30559 3.5324 3.18919 3.8756 3.13279 4.2272C3.06439 4.6472 2.99959 5.0804 3.03199 5.4992C3.05239 5.7632 2.97919 5.9252 2.83519 6.11C2.35159 6.7316 2.13439 7.4456 2.12119 8.228C2.10919 8.8976 2.19799 9.5492 2.40199 10.19C2.71399 11.1704 3.31759 11.906 4.22479 12.3848C4.97119 12.7784 5.78479 12.9296 6.61759 12.9596C7.36759 12.986 8.11999 12.9632 8.86999 12.968C9.62239 12.9728 10.3652 12.9056 11.0852 12.6704C11.8064 12.4352 12.4292 12.0572 12.914 11.4608C13.6136 10.6004 13.8308 9.5864 13.8752 8.5124C13.91 7.6916 13.742 6.92 13.262 6.248C13.0676 5.9756 12.9584 5.7416 12.9656 5.3816ZM11.516 11.6708C11.1932 11.9504 10.7984 12.0824 10.394 12.1784C9.60079 12.368 8.79439 12.4148 7.98439 12.38C7.18399 12.4148 6.39199 12.3644 5.61319 12.182C5.03839 12.0464 4.51399 11.8196 4.14799 11.3264C3.56599 10.5416 3.41719 9.0476 4.37839 8.2328C4.62319 8.0252 4.89679 7.8932 5.21959 7.8728C5.57599 7.85 5.93239 7.8056 6.28879 7.8104C7.18759 7.8212 8.08639 7.8656 8.98519 7.8728C9.39559 7.8752 9.80839 7.7804 10.2164 7.8044C10.5872 7.8272 10.976 7.8944 11.312 8.0444C11.8724 8.2928 12.1736 8.7968 12.2648 9.386C12.4016 10.2608 12.2228 11.0588 11.516 11.6708Z" fill="#51C49F"/>
<path d="M10.0506 11.1056C10.5238 11.1056 10.9074 10.593 10.9074 9.96078C10.9074 9.32852 10.5238 8.81598 10.0506 8.81598C9.57745 8.81598 9.19385 9.32852 9.19385 9.96078C9.19385 10.593 9.57745 11.1056 10.0506 11.1056Z" fill="#51C49F"/>
<path d="M5.96349 11.1056C6.43669 11.1056 6.82029 10.593 6.82029 9.96078C6.82029 9.32852 6.43669 8.81598 5.96349 8.81598C5.49029 8.81598 5.10669 9.32852 5.10669 9.96078C5.10669 10.593 5.49029 11.1056 5.96349 11.1056Z" fill="#51C49F"/>
</svg>
