<svg width="16" height="16" viewBox="0 0 16 16" fill="none" xmlns="http://www.w3.org/2000/svg">
<path d="M7.18679 10.8333H7.09262H6.71615H6.62814L6.61696 10.746L6.27061 8.04204L6.26113 7.96808L6.32931 7.93789C6.45258 7.88332 6.56809 7.84381 6.67548 7.82055C6.78566 7.78603 6.9049 7.76933 7.03238 7.76933C7.94159 7.76933 8.56825 7.63562 8.93374 7.38668C9.29414 7.14122 9.47732 6.77444 9.47732 6.26933C9.47732 6.0142 9.43415 5.77579 9.34847 5.55327L9.34795 5.5519L9.34796 5.55189C9.26156 5.3173 9.14222 5.11495 8.99047 4.94364L8.98836 4.94125L8.98839 4.94122C8.84804 4.77221 8.67511 4.64294 8.46829 4.55304L8.46463 4.55145L8.46466 4.55138C8.25768 4.45142 8.03667 4.40133 7.80038 4.40133C7.57127 4.40133 7.32545 4.44191 7.06241 4.52472L7.05896 4.52581L7.05894 4.52574C6.78404 4.60147 6.55334 4.64133 6.3698 4.64133C6.12217 4.64133 5.91485 4.57818 5.76082 4.4397L5.7546 4.43411L5.75486 4.43387C5.61426 4.28448 5.54697 4.09329 5.54697 3.86933C5.54697 3.65671 5.60866 3.46892 5.73439 3.31104L5.73479 3.31054L5.73479 3.31055C5.87391 3.1381 6.08315 3.02801 6.34901 2.97152C6.45195 2.94964 6.55957 2.93325 6.67178 2.92225C6.79098 2.89972 6.91896 2.89454 7.0551 2.90563C7.66117 2.94935 8.17606 3.11365 8.59509 3.40305C9.00609 3.68689 9.34154 4.02097 9.60008 4.40554C9.85712 4.78788 10.0377 5.19306 10.1411 5.62077C10.2528 6.04169 10.3098 6.41298 10.3098 6.73333C10.3098 7.00846 10.2736 7.28326 10.2014 7.55753M7.18679 10.8333L10.1044 7.53333M7.18679 10.8333L7.19244 10.7393L7.23762 9.98733L7.23762 9.98721C7.24621 9.84124 7.30063 9.72806 7.39985 9.6402C7.50948 9.54314 7.63776 9.46981 7.78589 9.42051M7.18679 10.8333L8.77225 9.19862M10.2014 7.55753C10.2013 7.55796 10.2012 7.55839 10.2011 7.55882L10.1044 7.53333M10.2014 7.55753C10.2015 7.5571 10.2016 7.55667 10.2017 7.55624L10.1044 7.53333M10.2014 7.55753C10.139 7.82224 10.0401 8.06594 9.90448 8.28803M10.1044 7.53333C10.0441 7.78933 9.94878 8.024 9.81827 8.23733M9.90448 8.28803C9.90477 8.28752 9.90506 8.28701 9.90534 8.28651L9.81827 8.23733M9.90448 8.28803C9.77878 8.51024 9.6215 8.70512 9.43279 8.8722L9.43024 8.87446L9.4302 8.87442C9.23757 9.03361 9.01784 9.14179 8.77225 9.19862M9.90448 8.28803C9.90418 8.28853 9.90387 8.28902 9.90357 8.28952L9.81827 8.23733M9.81827 8.23733L8.77225 9.19862M8.77225 9.19862C8.77247 9.19856 8.77269 9.19851 8.7729 9.19846L8.74909 9.10134L8.7716 9.19877C8.77181 9.19872 8.77203 9.19867 8.77225 9.19862ZM8.77225 9.19862C8.63917 9.23123 8.48154 9.2636 8.2997 9.2958C8.12338 9.32703 7.95212 9.36861 7.78589 9.42051M7.78589 9.42051C7.78617 9.42042 7.78644 9.42033 7.78672 9.42024L7.75521 9.32534L7.78504 9.42078C7.78532 9.42069 7.78561 9.4206 7.78589 9.42051ZM6.23674 13.1859C6.42647 13.3875 6.66372 13.4893 6.94203 13.4893C7.21077 13.4893 7.43805 13.387 7.61723 13.1859C7.80727 12.9947 7.90038 12.7504 7.90038 12.4613C7.90038 12.1816 7.80645 11.9431 7.61723 11.7528C7.43805 11.5516 7.21077 11.4493 6.94203 11.4493C6.66372 11.4493 6.42647 11.5512 6.23674 11.7528C6.05697 11.9438 5.96862 12.1824 5.96862 12.4613C5.96862 12.7497 6.05622 12.9941 6.23674 13.1859Z" fill="#51C49F" stroke="#51C49F" stroke-width="0.2"/>
</svg>
