<svg width="16" height="16" viewBox="0 0 16 16" fill="none" xmlns="http://www.w3.org/2000/svg">
<path d="M13.3531 5.79063C13.1984 5.175 13.5078 4.19375 14.5 3.84688L13.4391 3.79063C13.4391 3.79063 13.0375 2.38438 11.1953 2.25938C9.35312 2.13281 8.14844 2.2125 8.14844 2.2125C8.14844 2.2125 9.51406 3.08125 8.96719 4.62969C8.56719 5.45 7.93906 6.12344 7.26719 6.89063C7.24688 6.91094 7.22813 6.93125 7.2125 6.94844C4.99063 9.45313 1.5 13.4375 1.5 13.4375C5.34219 14.4438 7.91719 13.3391 9.44063 12.0141C9.76094 12.0109 10.0016 12.0094 10.1641 12.0094C12.2859 12.0094 14.0797 10.1719 14.0063 8.12813C13.9563 6.72344 13.5078 6.40625 13.3531 5.79063Z" fill="#51C49F"/>
</svg>
